<svg width="221" height="234" viewBox="0 0 221 234" fill="none" xmlns="http://www.w3.org/2000/svg">
<g opacity="0.3" filter="url(#filter0_f_17_2283)">
<path d="M119.575 119.071C121.057 115.65 121.385 112.385 120.584 108.81C117.219 109.147 113.134 110.129 111.925 112.858C111.834 113.067 111.597 113.176 111.379 113.103C108.495 112.121 105.566 112.13 102.646 113.103C102.428 113.176 102.191 113.067 102.1 112.858C101.1 110.593 97.8979 108.992 93.4953 108.546C92.6675 112.248 92.9859 115.696 94.4504 119.071C94.4959 119.171 94.4959 119.289 94.4595 119.398C94.4413 119.435 92.9677 123.846 95.2418 127.685C96.9155 130.505 100.163 132.342 104.911 133.152C110.16 133.834 115.154 132.124 117.965 128.686C120.139 126.02 120.712 122.718 119.566 119.389C119.529 119.289 119.529 119.171 119.575 119.071ZM96.7518 117.606C96.6881 117.633 96.6244 117.652 96.5607 117.652C96.3879 117.652 96.2333 117.561 96.1514 117.397C95.26 115.578 95.1235 113.877 95.7421 112.339C95.8057 112.185 95.9513 112.076 96.115 112.066C96.2151 112.057 98.5074 111.903 100.245 114.022C100.399 114.222 100.372 114.504 100.181 114.659C99.9901 114.814 99.7081 114.786 99.5535 114.595C98.4346 113.231 97.0519 112.994 96.4698 112.958C96.0695 114.186 96.2333 115.514 96.961 117.006C97.0701 117.224 96.9792 117.497 96.7518 117.606ZM98.0434 120.572C97.9161 120.362 97.9889 120.089 98.2072 119.962C98.2436 119.944 101.818 117.961 104.584 122C104.72 122.2 104.666 122.482 104.466 122.618C104.384 122.673 104.302 122.7 104.211 122.7C104.065 122.7 103.929 122.627 103.838 122.5C101.546 119.143 98.7712 120.672 98.6529 120.744C98.4346 120.863 98.1617 120.79 98.0434 120.572ZM111.542 129.768C111.142 129.886 110.697 129.95 110.242 129.95C109.132 129.95 107.94 129.577 107.031 128.667C106.13 129.577 104.929 129.95 103.829 129.95C103.365 129.95 102.928 129.886 102.528 129.768C101.2 129.386 100.345 128.495 100.236 127.367C100.208 127.121 100.39 126.903 100.636 126.875C100.882 126.857 101.1 127.03 101.127 127.276C101.2 128.022 101.818 128.631 102.774 128.913C103.856 129.222 105.302 129.068 106.33 128.094C106.312 128.076 106.285 128.067 106.267 128.049L104.857 126.066C104.647 125.775 104.611 125.393 104.784 125.074C104.948 124.747 105.275 124.547 105.63 124.547H108.723C109.105 124.547 109.432 124.765 109.596 125.111C109.751 125.447 109.696 125.838 109.459 126.129L107.777 128.103C107.777 128.112 107.767 128.112 107.758 128.122C108.786 129.068 110.224 129.222 111.297 128.913C112.252 128.631 112.871 128.022 112.943 127.276C112.971 127.03 113.198 126.857 113.435 126.875C113.68 126.903 113.853 127.121 113.835 127.367C113.717 128.495 112.861 129.386 111.542 129.768ZM115.972 120.572C115.854 120.79 115.581 120.863 115.363 120.744C115.245 120.681 112.461 119.162 110.178 122.5C110.087 122.627 109.951 122.7 109.805 122.7C109.714 122.7 109.632 122.673 109.55 122.618C109.35 122.482 109.296 122.2 109.432 122C112.197 117.961 115.772 119.944 115.809 119.962C116.027 120.089 116.1 120.362 115.972 120.572ZM117.764 117.397C117.683 117.561 117.528 117.652 117.355 117.652C117.291 117.652 117.228 117.633 117.164 117.606C116.937 117.497 116.846 117.224 116.955 117.006C117.683 115.514 117.846 114.186 117.446 112.958C116.864 112.994 115.49 113.222 114.362 114.595C114.208 114.786 113.926 114.814 113.735 114.659C113.544 114.504 113.516 114.222 113.671 114.022C115.408 111.903 117.701 112.057 117.801 112.066C117.965 112.076 118.11 112.185 118.174 112.339C118.792 113.877 118.656 115.578 117.764 117.397Z" fill="url(#paint0_linear_17_2283)"/>
<ellipse cx="97.8228" cy="125.26" rx="1.70557" ry="1.02334" fill="url(#paint1_linear_17_2283)"/>
<ellipse cx="116.356" cy="125.26" rx="1.70557" ry="1.02334" fill="url(#paint2_linear_17_2283)"/>
<path d="M107.647 110.616C107.392 111.121 106.672 111.121 106.418 110.616L105.526 108.847C105.289 108.378 104.948 107.969 104.53 107.652L102.871 106.396C102.507 106.121 102.507 105.574 102.871 105.299L104.53 104.043C104.948 103.726 105.289 103.317 105.526 102.848L106.418 101.079C106.672 100.574 107.392 100.574 107.647 101.079L108.539 102.848C108.775 103.317 109.116 103.726 109.535 104.043L111.194 105.299C111.558 105.574 111.558 106.121 111.194 106.396L109.535 107.652C109.116 107.969 108.775 108.378 108.539 108.847L107.647 110.616Z" fill="url(#paint3_linear_17_2283)"/>
</g>
<g filter="url(#filter1_d_17_2283)">
<path d="M119.575 119.071C121.057 115.65 121.385 112.385 120.584 108.81C117.219 109.147 113.134 110.129 111.925 112.858C111.834 113.067 111.597 113.176 111.379 113.103C108.495 112.121 105.566 112.13 102.646 113.103C102.428 113.176 102.191 113.067 102.1 112.858C101.1 110.593 97.8979 108.992 93.4953 108.546C92.6675 112.248 92.9859 115.696 94.4504 119.071C94.4959 119.171 94.4959 119.289 94.4595 119.398C94.4413 119.435 92.9677 123.846 95.2418 127.685C96.9155 130.505 100.163 132.342 104.911 133.152C110.16 133.834 115.154 132.124 117.965 128.686C120.139 126.02 120.712 122.718 119.566 119.389C119.529 119.289 119.529 119.171 119.575 119.071ZM96.7518 117.606C96.6881 117.633 96.6244 117.652 96.5607 117.652C96.3879 117.652 96.2333 117.561 96.1514 117.397C95.26 115.578 95.1235 113.877 95.7421 112.339C95.8057 112.185 95.9513 112.076 96.115 112.066C96.2151 112.057 98.5074 111.903 100.245 114.022C100.399 114.222 100.372 114.504 100.181 114.659C99.9901 114.814 99.7081 114.786 99.5535 114.595C98.4346 113.231 97.0519 112.994 96.4698 112.958C96.0695 114.186 96.2333 115.514 96.961 117.006C97.0701 117.224 96.9792 117.497 96.7518 117.606ZM98.0434 120.572C97.9161 120.362 97.9889 120.089 98.2072 119.962C98.2436 119.944 101.818 117.961 104.584 122C104.72 122.2 104.666 122.482 104.466 122.618C104.384 122.673 104.302 122.7 104.211 122.7C104.065 122.7 103.929 122.627 103.838 122.5C101.546 119.143 98.7712 120.672 98.6529 120.744C98.4346 120.863 98.1617 120.79 98.0434 120.572ZM111.542 129.768C111.142 129.886 110.697 129.95 110.242 129.95C109.132 129.95 107.94 129.577 107.031 128.667C106.13 129.577 104.929 129.95 103.829 129.95C103.365 129.95 102.928 129.886 102.528 129.768C101.2 129.386 100.345 128.495 100.236 127.367C100.208 127.121 100.39 126.903 100.636 126.875C100.882 126.857 101.1 127.03 101.127 127.276C101.2 128.022 101.818 128.631 102.774 128.913C103.856 129.222 105.302 129.068 106.33 128.094C106.312 128.076 106.285 128.067 106.267 128.049L104.857 126.066C104.647 125.775 104.611 125.393 104.784 125.074C104.948 124.747 105.275 124.547 105.63 124.547H108.723C109.105 124.547 109.432 124.765 109.596 125.111C109.751 125.447 109.696 125.838 109.459 126.129L107.777 128.103C107.777 128.112 107.767 128.112 107.758 128.122C108.786 129.068 110.224 129.222 111.297 128.913C112.252 128.631 112.871 128.022 112.943 127.276C112.971 127.03 113.198 126.857 113.435 126.875C113.68 126.903 113.853 127.121 113.835 127.367C113.717 128.495 112.861 129.386 111.542 129.768ZM115.972 120.572C115.854 120.79 115.581 120.863 115.363 120.744C115.245 120.681 112.461 119.162 110.178 122.5C110.087 122.627 109.951 122.7 109.805 122.7C109.714 122.7 109.632 122.673 109.55 122.618C109.35 122.482 109.296 122.2 109.432 122C112.197 117.961 115.772 119.944 115.809 119.962C116.027 120.089 116.1 120.362 115.972 120.572ZM117.764 117.397C117.683 117.561 117.528 117.652 117.355 117.652C117.291 117.652 117.228 117.633 117.164 117.606C116.937 117.497 116.846 117.224 116.955 117.006C117.683 115.514 117.846 114.186 117.446 112.958C116.864 112.994 115.49 113.222 114.362 114.595C114.208 114.786 113.926 114.814 113.735 114.659C113.544 114.504 113.516 114.222 113.671 114.022C115.408 111.903 117.701 112.057 117.801 112.066C117.965 112.076 118.11 112.185 118.174 112.339C118.792 113.877 118.656 115.578 117.764 117.397Z" fill="url(#paint4_linear_17_2283)"/>
<path d="M119.575 119.071C121.057 115.65 121.385 112.385 120.584 108.81C117.219 109.147 113.134 110.129 111.925 112.858C111.834 113.067 111.597 113.176 111.379 113.103C108.495 112.121 105.566 112.13 102.646 113.103C102.428 113.176 102.191 113.067 102.1 112.858C101.1 110.593 97.8979 108.992 93.4953 108.546C92.6675 112.248 92.9859 115.696 94.4504 119.071C94.4959 119.171 94.4959 119.289 94.4595 119.398C94.4413 119.435 92.9677 123.846 95.2418 127.685C96.9155 130.505 100.163 132.342 104.911 133.152C110.16 133.834 115.154 132.124 117.965 128.686C120.139 126.02 120.712 122.718 119.566 119.389C119.529 119.289 119.529 119.171 119.575 119.071ZM96.7518 117.606C96.6881 117.633 96.6244 117.652 96.5607 117.652C96.3879 117.652 96.2333 117.561 96.1514 117.397C95.26 115.578 95.1235 113.877 95.7421 112.339C95.8057 112.185 95.9513 112.076 96.115 112.066C96.2151 112.057 98.5074 111.903 100.245 114.022C100.399 114.222 100.372 114.504 100.181 114.659C99.9901 114.814 99.7081 114.786 99.5535 114.595C98.4346 113.231 97.0519 112.994 96.4698 112.958C96.0695 114.186 96.2333 115.514 96.961 117.006C97.0701 117.224 96.9792 117.497 96.7518 117.606ZM98.0434 120.572C97.9161 120.362 97.9889 120.089 98.2072 119.962C98.2436 119.944 101.818 117.961 104.584 122C104.72 122.2 104.666 122.482 104.466 122.618C104.384 122.673 104.302 122.7 104.211 122.7C104.065 122.7 103.929 122.627 103.838 122.5C101.546 119.143 98.7712 120.672 98.6529 120.744C98.4346 120.863 98.1617 120.79 98.0434 120.572ZM111.542 129.768C111.142 129.886 110.697 129.95 110.242 129.95C109.132 129.95 107.94 129.577 107.031 128.667C106.13 129.577 104.929 129.95 103.829 129.95C103.365 129.95 102.928 129.886 102.528 129.768C101.2 129.386 100.345 128.495 100.236 127.367C100.208 127.121 100.39 126.903 100.636 126.875C100.882 126.857 101.1 127.03 101.127 127.276C101.2 128.022 101.818 128.631 102.774 128.913C103.856 129.222 105.302 129.068 106.33 128.094C106.312 128.076 106.285 128.067 106.267 128.049L104.857 126.066C104.647 125.775 104.611 125.393 104.784 125.074C104.948 124.747 105.275 124.547 105.63 124.547H108.723C109.105 124.547 109.432 124.765 109.596 125.111C109.751 125.447 109.696 125.838 109.459 126.129L107.777 128.103C107.777 128.112 107.767 128.112 107.758 128.122C108.786 129.068 110.224 129.222 111.297 128.913C112.252 128.631 112.871 128.022 112.943 127.276C112.971 127.03 113.198 126.857 113.435 126.875C113.68 126.903 113.853 127.121 113.835 127.367C113.717 128.495 112.861 129.386 111.542 129.768ZM115.972 120.572C115.854 120.79 115.581 120.863 115.363 120.744C115.245 120.681 112.461 119.162 110.178 122.5C110.087 122.627 109.951 122.7 109.805 122.7C109.714 122.7 109.632 122.673 109.55 122.618C109.35 122.482 109.296 122.2 109.432 122C112.197 117.961 115.772 119.944 115.809 119.962C116.027 120.089 116.1 120.362 115.972 120.572ZM117.764 117.397C117.683 117.561 117.528 117.652 117.355 117.652C117.291 117.652 117.228 117.633 117.164 117.606C116.937 117.497 116.846 117.224 116.955 117.006C117.683 115.514 117.846 114.186 117.446 112.958C116.864 112.994 115.49 113.222 114.362 114.595C114.208 114.786 113.926 114.814 113.735 114.659C113.544 114.504 113.516 114.222 113.671 114.022C115.408 111.903 117.701 112.057 117.801 112.066C117.965 112.076 118.11 112.185 118.174 112.339C118.792 113.877 118.656 115.578 117.764 117.397Z" fill="#13A3BC"/>
<ellipse cx="97.8228" cy="125.26" rx="1.70557" ry="1.02334" fill="url(#paint5_linear_17_2283)"/>
<ellipse cx="97.8228" cy="125.26" rx="1.70557" ry="1.02334" fill="#13A3BC"/>
<ellipse cx="116.356" cy="125.26" rx="1.70557" ry="1.02334" fill="url(#paint6_linear_17_2283)"/>
<ellipse cx="116.356" cy="125.26" rx="1.70557" ry="1.02334" fill="#13A3BC"/>
<path d="M107.647 110.616C107.392 111.121 106.672 111.121 106.418 110.616L105.526 108.847C105.289 108.378 104.948 107.969 104.53 107.652L102.871 106.396C102.507 106.121 102.507 105.574 102.871 105.299L104.53 104.043C104.948 103.726 105.289 103.317 105.526 102.848L106.418 101.079C106.672 100.574 107.392 100.574 107.647 101.079L108.539 102.848C108.775 103.317 109.116 103.726 109.535 104.043L111.194 105.299C111.558 105.574 111.558 106.121 111.194 106.396L109.535 107.652C109.116 107.969 108.775 108.378 108.539 108.847L107.647 110.616Z" fill="url(#paint7_linear_17_2283)"/>
<path d="M107.647 110.616C107.392 111.121 106.672 111.121 106.418 110.616L105.526 108.847C105.289 108.378 104.948 107.969 104.53 107.652L102.871 106.396C102.507 106.121 102.507 105.574 102.871 105.299L104.53 104.043C104.948 103.726 105.289 103.317 105.526 102.848L106.418 101.079C106.672 100.574 107.392 100.574 107.647 101.079L108.539 102.848C108.775 103.317 109.116 103.726 109.535 104.043L111.194 105.299C111.558 105.574 111.558 106.121 111.194 106.396L109.535 107.652C109.116 107.969 108.775 108.378 108.539 108.847L107.647 110.616Z" fill="#13A3BC"/>
</g>
<g filter="url(#filter2_i_17_2283)">
<path d="M119.45 119.27C120.932 115.85 121.26 112.584 120.459 109.009C117.094 109.346 113.009 110.328 111.8 113.057C111.709 113.266 111.472 113.375 111.254 113.303C108.37 112.32 105.441 112.329 102.521 113.303C102.303 113.375 102.066 113.266 101.975 113.057C100.975 110.792 97.7729 109.191 93.3703 108.745C92.5425 112.448 92.8609 115.895 94.3254 119.27C94.3709 119.37 94.3709 119.488 94.3345 119.597C94.3163 119.634 92.8427 124.045 95.1168 127.884C96.7905 130.704 100.038 132.542 104.786 133.351C110.035 134.033 115.029 132.323 117.84 128.885C120.014 126.22 120.587 122.918 119.441 119.588C119.404 119.488 119.404 119.37 119.45 119.27ZM96.6268 117.805C96.5631 117.833 96.4994 117.851 96.4357 117.851C96.2629 117.851 96.1083 117.76 96.0264 117.596C95.135 115.777 94.9985 114.076 95.6171 112.539C95.6807 112.384 95.8263 112.275 95.99 112.266C96.0901 112.257 98.3824 112.102 100.12 114.221C100.274 114.422 100.247 114.704 100.056 114.858C99.8651 115.013 99.5831 114.985 99.4285 114.794C98.3096 113.43 96.9269 113.193 96.3448 113.157C95.9445 114.385 96.1083 115.713 96.836 117.205C96.9451 117.423 96.8542 117.696 96.6268 117.805ZM97.9184 120.771C97.7911 120.562 97.8639 120.289 98.0822 120.161C98.1186 120.143 101.693 118.16 104.459 122.199C104.595 122.399 104.541 122.681 104.341 122.817C104.259 122.872 104.177 122.899 104.086 122.899C103.94 122.899 103.804 122.827 103.713 122.699C101.421 119.343 98.6462 120.871 98.5279 120.944C98.3096 121.062 98.0367 120.989 97.9184 120.771ZM111.417 129.967C111.017 130.086 110.572 130.149 110.117 130.149C109.007 130.149 107.815 129.776 106.906 128.867C106.005 129.776 104.804 130.149 103.704 130.149C103.24 130.149 102.803 130.086 102.403 129.967C101.075 129.585 100.22 128.694 100.111 127.566C100.083 127.32 100.265 127.102 100.511 127.075C100.757 127.056 100.975 127.229 101.002 127.475C101.075 128.221 101.693 128.83 102.649 129.112C103.731 129.421 105.177 129.267 106.205 128.294C106.187 128.275 106.16 128.266 106.142 128.248L104.732 126.265C104.522 125.974 104.486 125.592 104.659 125.274C104.823 124.946 105.15 124.746 105.505 124.746H108.598C108.98 124.746 109.307 124.964 109.471 125.31C109.626 125.646 109.571 126.038 109.334 126.329L107.652 128.303C107.652 128.312 107.642 128.312 107.633 128.321C108.661 129.267 110.099 129.421 111.172 129.112C112.127 128.83 112.746 128.221 112.818 127.475C112.846 127.229 113.073 127.056 113.31 127.075C113.555 127.102 113.728 127.32 113.71 127.566C113.592 128.694 112.736 129.585 111.417 129.967ZM115.847 120.771C115.729 120.989 115.456 121.062 115.238 120.944C115.12 120.88 112.336 119.361 110.053 122.699C109.962 122.827 109.826 122.899 109.68 122.899C109.589 122.899 109.507 122.872 109.425 122.817C109.225 122.681 109.171 122.399 109.307 122.199C112.072 118.16 115.647 120.143 115.684 120.161C115.902 120.289 115.975 120.562 115.847 120.771ZM117.639 117.596C117.558 117.76 117.403 117.851 117.23 117.851C117.166 117.851 117.103 117.833 117.039 117.805C116.812 117.696 116.721 117.423 116.83 117.205C117.558 115.713 117.721 114.385 117.321 113.157C116.739 113.193 115.365 113.421 114.237 114.794C114.083 114.985 113.801 115.013 113.61 114.858C113.419 114.704 113.391 114.422 113.546 114.221C115.283 112.102 117.576 112.257 117.676 112.266C117.84 112.275 117.985 112.384 118.049 112.539C118.667 114.076 118.531 115.777 117.639 117.596Z" fill="url(#paint8_linear_17_2283)"/>
<ellipse cx="97.8228" cy="125.26" rx="1.70557" ry="1.02334" fill="white"/>
<ellipse cx="116.356" cy="125.26" rx="1.70557" ry="1.02334" fill="white"/>
<path d="M107.647 110.616C107.392 111.121 106.672 111.121 106.418 110.616L105.526 108.847C105.289 108.378 104.948 107.969 104.53 107.652L102.871 106.396C102.507 106.121 102.507 105.574 102.871 105.299L104.53 104.043C104.948 103.726 105.289 103.317 105.526 102.848L106.418 101.079C106.672 100.574 107.392 100.574 107.647 101.079L108.539 102.848C108.775 103.317 109.116 103.726 109.535 104.043L111.194 105.299C111.558 105.574 111.558 106.121 111.194 106.396L109.535 107.652C109.116 107.969 108.775 108.378 108.539 108.847L107.647 110.616Z" fill="url(#paint9_linear_17_2283)"/>
</g>
<g filter="url(#filter3_f_17_2283)">
<path d="M106.818 127.542C106.962 127.744 107.263 127.744 107.407 127.542L108.637 125.815C108.807 125.576 108.636 125.244 108.342 125.244H105.883C105.589 125.244 105.418 125.576 105.588 125.815L106.818 127.542Z" fill="#FF33F1"/>
</g>
<path d="M106.818 127.542C106.962 127.744 107.263 127.744 107.407 127.542L108.637 125.815C108.807 125.576 108.636 125.244 108.342 125.244H105.883C105.589 125.244 105.418 125.576 105.588 125.815L106.818 127.542Z" fill="#FF33F1"/>
<defs>
<filter id="filter0_f_17_2283" x="-6.95312" y="0.700195" width="227.963" height="232.6" filterUnits="userSpaceOnUse" color-interpolation-filters="sRGB">
<feFlood flood-opacity="0" result="BackgroundImageFix"/>
<feBlend mode="normal" in="SourceGraphic" in2="BackgroundImageFix" result="shape"/>
<feGaussianBlur stdDeviation="50" result="effect1_foregroundBlur_17_2283"/>
</filter>
<filter id="filter1_d_17_2283" x="92.0943" y="99.7476" width="29.868" height="34.5047" filterUnits="userSpaceOnUse" color-interpolation-filters="sRGB">
<feFlood flood-opacity="0" result="BackgroundImageFix"/>
<feColorMatrix in="SourceAlpha" type="matrix" values="0 0 0 0 0 0 0 0 0 0 0 0 0 0 0 0 0 0 127 0" result="hardAlpha"/>
<feOffset/>
<feGaussianBlur stdDeviation="0.476276"/>
<feComposite in2="hardAlpha" operator="out"/>
<feColorMatrix type="matrix" values="0 0 0 0 1 0 0 0 0 1 0 0 0 0 1 0 0 0 0.25 0"/>
<feBlend mode="normal" in2="BackgroundImageFix" result="effect1_dropShadow_17_2283"/>
<feBlend mode="normal" in="SourceGraphic" in2="effect1_dropShadow_17_2283" result="shape"/>
</filter>
<filter id="filter2_i_17_2283" x="92.9219" y="100.7" width="28.2965" height="32.7988" filterUnits="userSpaceOnUse" color-interpolation-filters="sRGB">
<feFlood flood-opacity="0" result="BackgroundImageFix"/>
<feBlend mode="normal" in="SourceGraphic" in2="BackgroundImageFix" result="shape"/>
<feColorMatrix in="SourceAlpha" type="matrix" values="0 0 0 0 0 0 0 0 0 0 0 0 0 0 0 0 0 0 127 0" result="hardAlpha"/>
<feOffset dx="0.333573"/>
<feGaussianBlur stdDeviation="0.333573"/>
<feComposite in2="hardAlpha" operator="arithmetic" k2="-1" k3="1"/>
<feColorMatrix type="matrix" values="0 0 0 0 1 0 0 0 0 1 0 0 0 0 1 0 0 0 0.5 0"/>
<feBlend mode="normal" in2="shape" result="effect1_innerShadow_17_2283"/>
</filter>
<filter id="filter3_f_17_2283" x="105.194" y="124.916" width="3.83933" height="3.10593" filterUnits="userSpaceOnUse" color-interpolation-filters="sRGB">
<feFlood flood-opacity="0" result="BackgroundImageFix"/>
<feBlend mode="normal" in="SourceGraphic" in2="BackgroundImageFix" result="shape"/>
<feGaussianBlur stdDeviation="0.163935" result="effect1_foregroundBlur_17_2283"/>
</filter>
<linearGradient id="paint0_linear_17_2283" x1="91.2542" y1="116.438" x2="127.089" y2="134.133" gradientUnits="userSpaceOnUse">
<stop stop-color="#88F980"/>
<stop offset="0.189264" stop-color="#C3FCDA"/>
<stop offset="0.355832" stop-color="#FBFAA1"/>
<stop offset="0.577112" stop-color="#29FA75"/>
<stop offset="1" stop-color="#25F900"/>
</linearGradient>
<linearGradient id="paint1_linear_17_2283" x1="95.8985" y1="124.889" x2="99.4506" y2="127.477" gradientUnits="userSpaceOnUse">
<stop stop-color="#88F980"/>
<stop offset="0.189264" stop-color="#C3FCDA"/>
<stop offset="0.355832" stop-color="#FBFAA1"/>
<stop offset="0.577112" stop-color="#29FA75"/>
<stop offset="1" stop-color="#25F900"/>
</linearGradient>
<linearGradient id="paint2_linear_17_2283" x1="114.432" y1="124.889" x2="117.984" y2="127.477" gradientUnits="userSpaceOnUse">
<stop stop-color="#88F980"/>
<stop offset="0.189264" stop-color="#C3FCDA"/>
<stop offset="0.355832" stop-color="#FBFAA1"/>
<stop offset="0.577112" stop-color="#29FA75"/>
<stop offset="1" stop-color="#25F900"/>
</linearGradient>
<linearGradient id="paint3_linear_17_2283" x1="102.029" y1="103.982" x2="114.41" y2="108.645" gradientUnits="userSpaceOnUse">
<stop stop-color="#88F980"/>
<stop offset="0.189264" stop-color="#C3FCDA"/>
<stop offset="0.355832" stop-color="#FBFAA1"/>
<stop offset="0.577112" stop-color="#29FA75"/>
<stop offset="1" stop-color="#25F900"/>
</linearGradient>
<linearGradient id="paint4_linear_17_2283" x1="91.7104" y1="116.68" x2="127.545" y2="134.375" gradientUnits="userSpaceOnUse">
<stop stop-color="#80F9B8"/>
<stop offset="0.189264" stop-color="#C7F284"/>
<stop offset="0.355832" stop-color="#A1FBEC"/>
<stop offset="0.577112" stop-color="#27D2F0"/>
<stop offset="1" stop-color="#00AAF9"/>
</linearGradient>
<linearGradient id="paint5_linear_17_2283" x1="95.9541" y1="124.909" x2="99.5062" y2="127.497" gradientUnits="userSpaceOnUse">
<stop stop-color="#80F9B8"/>
<stop offset="0.189264" stop-color="#C7F284"/>
<stop offset="0.355832" stop-color="#A1FBEC"/>
<stop offset="0.577112" stop-color="#27D2F0"/>
<stop offset="1" stop-color="#00AAF9"/>
</linearGradient>
<linearGradient id="paint6_linear_17_2283" x1="114.487" y1="124.909" x2="118.039" y2="127.497" gradientUnits="userSpaceOnUse">
<stop stop-color="#80F9B8"/>
<stop offset="0.189264" stop-color="#C7F284"/>
<stop offset="0.355832" stop-color="#A1FBEC"/>
<stop offset="0.577112" stop-color="#27D2F0"/>
<stop offset="1" stop-color="#00AAF9"/>
</linearGradient>
<linearGradient id="paint7_linear_17_2283" x1="102.174" y1="104.083" x2="114.555" y2="108.746" gradientUnits="userSpaceOnUse">
<stop stop-color="#80F9B8"/>
<stop offset="0.189264" stop-color="#C7F284"/>
<stop offset="0.355832" stop-color="#A1FBEC"/>
<stop offset="0.577112" stop-color="#27D2F0"/>
<stop offset="1" stop-color="#00AAF9"/>
</linearGradient>
<linearGradient id="paint8_linear_17_2283" x1="91.1292" y1="116.638" x2="126.964" y2="134.332" gradientUnits="userSpaceOnUse">
<stop stop-color="#92F980"/>
<stop offset="0.160483" stop-color="#FBFCB9"/>
<stop offset="0.236306" stop-color="#C8FCC3"/>
<stop offset="0.355832" stop-color="#A1FBE0"/>
<stop offset="0.577112" stop-color="#29FAAA"/>
<stop offset="1" stop-color="#00F95B"/>
</linearGradient>
<linearGradient id="paint9_linear_17_2283" x1="102.029" y1="103.982" x2="114.41" y2="108.645" gradientUnits="userSpaceOnUse">
<stop stop-color="#92F980"/>
<stop offset="0.160483" stop-color="#FBFCB9"/>
<stop offset="0.189264" stop-color="#C8FCC3"/>
<stop offset="0.355832" stop-color="#A1FBE0"/>
<stop offset="0.577112" stop-color="#29FAAA"/>
<stop offset="1" stop-color="#00F95B"/>
</linearGradient>
</defs>
</svg>
